<?xml version="1.0" encoding="UTF-8" standalone="no" ?>
<!DOCTYPE svg PUBLIC "-//W3C//DTD SVG 1.1//EN" "http://www.w3.org/Graphics/SVG/1.1/DTD/svg11.dtd">
<svg xmlns="http://www.w3.org/2000/svg" xmlns:xlink="http://www.w3.org/1999/xlink" version="1.1" width="250" height="250" viewBox="0 0 250 250" xml:space="preserve">
<desc>lunatic.red logo</desc>
<defs>
</defs>
<g transform="matrix(1 0 0 1 125 125)" id="fox"  >
<g style=""  paint-order="stroke"   >
		<g transform="matrix(1 0 0 1 0 -1.421085e-14)" id="path-01"  >
<linearGradient id="SVGID_137103" gradientUnits="userSpaceOnUse" gradientTransform="matrix(1 0 0 1 0 -0.00000336006011991685)"  x1="0" y1="0" x2="0" y2="250">
<stop offset="0%" style="stop-color:rgb(250,217,97);stop-opacity: 1"/>
<stop offset="100%" style="stop-color:rgb(247,107,28);stop-opacity: 1"/>
</linearGradient>
<path style="stroke: none; stroke-width: 1; stroke-dasharray: none; stroke-linecap: butt; stroke-dashoffset: 0; stroke-linejoin: miter; stroke-miterlimit: 4; fill: url(#SVGID_137103); fill-rule: nonzero; opacity: 1;"  paint-order="stroke"  transform=" translate(-112.3672471888092, -124.99998419748499)" d="M 216.5361 186.61722 C 210.53198 147.74835000000002 189.67555000000002 117.5697 163.76294000000001 100.97931 C 136.59996 83.58847 109.88066 102.05099 98.50755000000001 75.86477 C 90.41999000000001 57.24342999999999 93.70431 47.30752999999999 93.70431 47.30752999999999 C 93.70431 47.30752999999999 97.08023 42.484809999999996 97.25237000000001 33.643159999999995 C 97.42450000000001 24.801599999999993 105.76111000000002 15.156159999999996 106.08257000000002 7.761299999999995 C 106.40413000000002 0.3665399999999952 103.34975000000001 -1.8840500000000056 92.09508000000002 5.028479999999995 C 80.84041000000003 11.941009999999995 69.43003000000002 19.175089999999997 60.106140000000025 18.532079999999993 C 50.782250000000026 17.888979999999993 41.81297000000002 18.85353999999999 41.81297000000002 18.85353999999999 C 41.81297000000002 18.85353999999999 39.36846000000002 14.352369999999992 27.63321000000002 5.349939999999991 C 15.89797 -3.6524 12.03982 -1.08026 9.6496 11.45877 C 7.259379999999998 23.997799999999998 11.87904 33.64315 9.94991 41.19878 C 8.020879999999998 48.75432 15.119299999999999 52.41874 10.95538 62.74015 C 6.79691 73.04846 1.07316 81.65787 2.95325 96.0069 C 4.833340000000001 110.35593 0 120.49625 0 120.49625 C 10.57482 114.35575 15.19299 103.70410000000001 17.30321 93.10231 L 17.30764 93.1036 C 22.53585 75.2947 26.40952 67.64746 34.336389999999994 60.47636 L 34.336389999999994 60.47627 C 41.196929999999995 71.70398 52.867439999999995 86.52647 65.67613 94.18858 C 54.38027 92.4761 47.592960000000005 98.12699 45.146969999999996 104.1962 C 45.146969999999996 104.1962 50.04338 98.50200000000001 57.57611 99.06726 C 66.50706 99.73743 82.56423 108.12889 89.53466 96.36713 C 90.52831 94.84830000000001 90.96557 92.99278 91.11924 91.31077 C 91.33856 109.18985 78.26003 126.10095000000001 78.26003 126.10095000000001 C 78.26003 126.10095000000001 86.05105 122.06106000000001 92.32935 115.79847000000001 C 89.07689 123.94327000000001 84.20975 133.69150000000002 76.93994 146.06329 C 66.45756 163.9021 67.65077000000001 181.27411 67.89706000000001 183.84790999999998 C 67.67662000000001 182.14372999999998 65.96479000000001 173.91572 52.98471000000001 164.75906999999998 C 35.27601000000001 152.26666999999998 33.077510000000004 136.9697 33.077510000000004 136.9697 C 33.077510000000004 136.9697 31.545940000000005 152.78797 35.538000000000004 159.86856 C 12.353500000000004 146.72465 14.133670000000002 115.6736 14.133670000000002 115.6736 C 9.561760000000003 160.14072 40.03067 175.88936 40.03067 175.88936 C 40.03067 175.88936 35.58001 225.42639000000003 29.17207 229.91205000000002 C 22.76403 234.39771000000002 17.210390000000004 230.76645000000002 14.647120000000001 232.26163000000003 C 12.083940000000002 233.75692000000004 9.307170000000001 238.66968000000003 10.375160000000001 244.22332000000003 L 65.69783000000001 244.22332000000003 C 95.38834000000001 247.42739000000003 187.66396000000003 256.61219000000006 207.95604 241.87374000000003 C 228.24811999999997 227.13529 228.88896 202.78474 216.5361 186.61722 z M 165.31853 142.43796 C 147.15132 147.8817 140.79122 157.8414 140.79122 157.8414 C 140.79122 157.8414 146.36748 157.07446 153.1885 160.21149 C 153.1885 160.21149 127.66476 167.25635 115.59264 187.52306 C 115.62199 186.88947 121.3522 145.12866 165.31853 142.43796 z M 58.54215 230.80527 C 56.60776 231.77242 50.52848 230.80527 48.73233 231.77242 C 46.93609 232.73966000000001 44.31095 237.54575 44.31095 237.54575 C 44.31095 237.54575 52.04832 223.06798 56.469609999999996 214.36347 C 60.890989999999995 205.65896 63.101589999999995 189.96831 63.101589999999995 189.96831 C 63.101589999999995 189.96831 67.52297 194.32929000000001 67.23031999999999 197.78353 C 66.93758 201.23766 60.47645 229.83812 58.54215 230.80527 z M 156.55066 213.49301 C 151.9673 213.79756 147.35523 213.81244 142.81868 213.7995 C 147.79849 207.52463 154.13062 207.58872 154.13062 207.58872 C 126.16356999999999 207.05533 107.47579999999999 219.61079999999998 107.47579999999999 219.61079999999998 C 107.47579999999999 219.61079999999998 111.58596999999999 210.03849999999997 120.10634999999999 207.20862 C 128.62673999999998 204.37865 118.49082999999999 207.20862 118.49082999999999 207.20862 C 118.49082999999999 207.20862 89.24385999999998 213.5365 67.23031999999999 237.54575 C 80.19506999999999 198.32477 119.94234 187.70691 135.37941 191.14609000000002 C 127.05721000000001 192.94344 122.12432000000001 199.36754000000002 122.12432000000001 199.36754000000002 C 122.12432000000001 199.36754000000002 136.62738000000002 192.15193000000002 154.18787 194.47446000000002 C 191.18431 199.36754000000002 201.72266000000002 185.24947000000003 201.72266000000002 185.24947000000003 C 192.52962 209.31154 174.60889 212.29314 156.55066 213.49301 z" stroke-linecap="round" />
</g>
</g>
</g>
</svg>