<?xml version="1.0" encoding="UTF-8" standalone="no" ?>
<!DOCTYPE svg PUBLIC "-//W3C//DTD SVG 1.1//EN" "http://www.w3.org/Graphics/SVG/1.1/DTD/svg11.dtd">
<svg xmlns="http://www.w3.org/2000/svg" xmlns:xlink="http://www.w3.org/1999/xlink" version="1.1" width="1100" height="250" viewBox="0 0 1100 250" xml:space="preserve">
<desc>lunatic.red logo</desc>
<defs>
</defs>
<g transform="matrix(3.5 0 0 3.5 670 100)" id="lunatic.red"  >
<g style=""  paint-order="stroke"   >
		<g transform="matrix(1 0 0 1 0 0)" id="text-logo-path-0"  >
<path style="stroke: rgb(0,0,0); stroke-width: 3; stroke-dasharray: none; stroke-linecap: butt; stroke-dashoffset: 0; stroke-linejoin: miter; stroke-miterlimit: 4; fill: rgb(255,145,77); fill-rule: nonzero; opacity: 1;"  paint-order="stroke"  transform=" translate(-122.62, 16.955000000000002)" d="M 1.94 -33.91 L 1.94 0 L 17.92 0 L 17.92 -5.33 L 7.27 -5.33 L 7.27 -33.91 Z M 23.54 -33.91 L 23.54 -9.01 C 23.54 -3.49 27.32 0.48 33.08 0.48 C 38.6 0.48 42.58 -3.29 42.58 -9.01 L 42.58 -33.91 L 37.25 -33.91 L 37.25 -9.01 C 37.25 -5.96 36.09 -4.84 33.08 -4.84 C 29.98 -4.84 28.87 -6.01 28.87 -9.01 L 28.87 -33.91 Z M 50.42 -33.91 L 50.42 0 L 55.75 0 L 55.75 -20.05 L 64.13 0 L 69.46 0 L 69.46 -33.91 L 64.13 -33.91 L 64.13 -12.74 L 55.27 -33.91 Z M 81.86 -33.91 L 76.05 0 L 81.37 0 L 81.95 -3.39 L 89.17 -3.39 L 89.75 0 L 95.08 0 L 89.27 -33.91 Z M 82.88 -8.72 L 85.59 -24.46 L 88.25 -8.72 Z M 116.83 -33.91 L 97.94 -33.91 L 97.94 -28.58 L 104.72 -28.58 L 104.72 0 L 110.05 0 L 110.05 -28.58 L 116.83 -28.58 Z M 123.22 -33.91 L 123.22 0 L 128.55 0 L 128.55 -33.91 Z M 136.25 -24.9 L 136.25 -9.01 C 136.25 -3.49 140.03 0.48 145.79 0.48 C 151.32 0.48 155.29 -3.29 155.29 -9.01 L 155.29 -11.43 L 149.96 -11.43 L 149.96 -9.01 C 149.96 -5.96 148.8 -4.84 145.79 -4.84 C 142.69 -4.84 141.58 -6.01 141.58 -9.01 L 141.58 -24.9 C 141.58 -28 142.74 -29.06 145.79 -29.06 C 148.85 -29.06 149.96 -27.9 149.96 -24.9 L 149.96 -22.47 L 155.29 -22.47 L 155.29 -24.9 C 155.29 -30.42 151.51 -34.39 145.79 -34.39 C 140.27 -34.39 136.25 -30.71 136.25 -24.9 Z M 159.94 -5.33 L 159.94 0 L 165.27 0 L 165.27 -5.33 Z M 182.75 -33.91 L 173.26 -33.91 L 173.26 0 L 178.59 0 L 178.59 -14.82 L 182.75 -14.82 C 185.8 -14.82 186.97 -13.71 186.97 -10.61 L 186.97 0 L 192.29 0 L 192.29 -10.61 C 192.29 -13.47 191.33 -15.84 189.63 -17.49 C 191.33 -19.18 192.29 -21.6 192.29 -24.36 C 192.29 -30.13 188.32 -33.91 182.75 -33.91 Z M 178.59 -20.15 L 178.59 -28.58 L 182.75 -28.58 C 185.8 -28.58 186.97 -27.46 186.97 -24.36 C 186.97 -21.36 185.8 -20.15 182.75 -20.15 Z M 199.95 -33.91 L 199.95 0 L 215.93 0 L 215.93 -5.33 L 205.27 -5.33 L 205.27 -14.77 L 214.96 -14.77 L 214.96 -20.1 L 205.27 -20.1 L 205.27 -28.58 L 215.93 -28.58 L 215.93 -33.91 Z M 233.8 -33.91 L 224.26 -33.91 L 224.26 0 L 233.8 0 C 239.52 0 243.3 -3.97 243.3 -9.49 L 243.3 -24.41 C 243.3 -29.93 239.52 -33.91 233.8 -33.91 Z M 229.59 -5.33 L 229.59 -28.58 L 233.8 -28.58 C 236.86 -28.58 237.97 -27.42 237.97 -24.41 L 237.97 -9.49 C 237.97 -6.49 236.86 -5.33 233.8 -5.33 Z" stroke-linecap="round" />
</g>
</g>
</g>
<g transform="matrix(2.5 0 0 2.5 670 220)" id="engineeringblog"  >
<g style=""  paint-order="stroke"   >
		<g transform="matrix(1 0 0 1 0 0)" id="tagline-0236060d-c1eb-44f5-a875-8c6c772bcf22-logo-path-0"  >
<path style="stroke: none; stroke-width: 0; stroke-dasharray: none; stroke-linecap: butt; stroke-dashoffset: 0; stroke-linejoin: miter; stroke-miterlimit: 4; fill: rgb(0,0,0); fill-rule: nonzero; opacity: 1;"  paint-order="stroke"  transform=" translate(-132.35500000000002, 9.799999999999999)" d="M 2.8 -19.6 L 2.8 0 L 11.2 0 L 11.2 -1.68 L 4.76 -1.68 L 4.76 -8.96 L 9.52 -8.96 L 9.52 -10.64 L 4.76 -10.64 L 4.76 -17.92 L 10.92 -17.92 L 10.92 -19.6 Z M 19.54 -19.6 L 19.54 0 L 21.5 0 L 21.5 -14.84 L 27.61 0 L 29.57 0 L 29.57 -19.6 L 27.61 -19.6 L 27.61 -4.76 L 21.5 -19.6 Z M 48.41 -9.8 L 43.37 -9.8 L 43.37 -8.12 L 46.45 -8.12 L 46.45 -4.76 C 46.45 -2.21 45.36 -1.68 43.65 -1.68 C 41.94 -1.68 40.85 -2.21 40.85 -4.76 L 40.85 -14.84 C 40.85 -17.39 41.94 -17.92 43.65 -17.92 C 45.36 -17.92 46.45 -17.39 46.45 -14.84 L 46.45 -12.04 L 48.41 -12.04 L 48.41 -15.4 C 48.41 -19.15 46.31 -19.88 43.65 -19.88 C 41.02 -19.88 38.89 -19.15 38.89 -15.4 L 38.89 -4.2 C 38.89 -0.45 41.02 0.28 43.65 0.28 C 44.52 0.28 45.89 -0.11 46.65 -1.62 L 47.29 0 L 48.41 0 Z M 61.38 -19.6 L 56.9 -19.6 L 56.9 -17.92 L 58.16 -17.92 L 58.16 -1.68 L 56.9 -1.68 L 56.9 0 L 61.38 0 L 61.38 -1.68 L 60.12 -1.68 L 60.12 -17.92 L 61.38 -17.92 Z M 70.28 -19.6 L 70.28 0 L 72.24 0 L 72.24 -14.84 L 78.34 0 L 80.3 0 L 80.3 -19.6 L 78.34 -19.6 L 78.34 -4.76 L 72.24 -19.6 Z M 90.05 -19.6 L 90.05 0 L 98.45 0 L 98.45 -1.68 L 92.01 -1.68 L 92.01 -8.96 L 96.77 -8.96 L 96.77 -10.64 L 92.01 -10.64 L 92.01 -17.92 L 98.17 -17.92 L 98.17 -19.6 Z M 106.79 -19.6 L 106.79 0 L 115.19 0 L 115.19 -1.68 L 108.75 -1.68 L 108.75 -8.96 L 113.51 -8.96 L 113.51 -10.64 L 108.75 -10.64 L 108.75 -17.92 L 114.91 -17.92 L 114.91 -19.6 Z M 123.54 0 L 125.5 0 L 125.5 -7.28 L 127.46 -7.28 L 130.96 0 L 133.06 0 L 129.47 -7.5 C 131.1 -7.92 132.22 -9.07 132.22 -11.76 L 132.22 -15.12 C 132.22 -18.87 130.12 -19.6 127.46 -19.6 L 123.54 -19.6 Z M 125.5 -8.96 L 125.5 -17.92 L 127.46 -17.92 C 129.16 -17.92 130.26 -17.39 130.26 -14.84 L 130.26 -12.04 C 130.26 -9.49 129.16 -8.96 127.46 -8.96 Z M 144.76 -19.6 L 140.28 -19.6 L 140.28 -17.92 L 141.54 -17.92 L 141.54 -1.68 L 140.28 -1.68 L 140.28 0 L 144.76 0 L 144.76 -1.68 L 143.5 -1.68 L 143.5 -17.92 L 144.76 -17.92 Z M 153.66 -19.6 L 153.66 0 L 155.62 0 L 155.62 -14.84 L 161.73 0 L 163.69 0 L 163.69 -19.6 L 161.73 -19.6 L 161.73 -4.76 L 155.62 -19.6 Z M 182.53 -9.8 L 177.49 -9.8 L 177.49 -8.12 L 180.57 -8.12 L 180.57 -4.76 C 180.57 -2.21 179.48 -1.68 177.77 -1.68 C 176.06 -1.68 174.97 -2.21 174.97 -4.76 L 174.97 -14.84 C 174.97 -17.39 176.06 -17.92 177.77 -17.92 C 179.48 -17.92 180.57 -17.39 180.57 -14.84 L 180.57 -12.04 L 182.53 -12.04 L 182.53 -15.4 C 182.53 -19.15 180.43 -19.88 177.77 -19.88 C 175.14 -19.88 173.01 -19.15 173.01 -15.4 L 173.01 -4.2 C 173.01 -0.45 175.14 0.28 177.77 0.28 C 178.64 0.28 180.01 -0.11 180.77 -1.62 L 181.41 0 L 182.53 0 Z M 201.6 0 L 205.8 0 C 208.46 0 210.56 -0.78 210.56 -4.48 L 210.56 -6.72 C 210.56 -8.88 209.86 -9.86 208.74 -10.28 C 209.69 -10.78 210.28 -11.76 210.28 -13.72 L 210.28 -15.12 C 210.28 -18.87 208.18 -19.6 205.52 -19.6 L 201.6 -19.6 Z M 203.56 -1.68 L 203.56 -9.52 L 205.8 -9.52 C 207.51 -9.52 208.6 -8.99 208.6 -6.16 L 208.6 -4.76 C 208.6 -2.21 207.51 -1.68 205.8 -1.68 Z M 203.56 -10.92 L 203.56 -17.92 L 205.52 -17.92 C 207.23 -17.92 208.32 -17.39 208.32 -14.84 L 208.32 -14 C 208.32 -11.45 207.23 -10.92 205.52 -10.92 Z M 219.88 -19.6 L 219.88 0 L 226.88 0 L 226.88 -1.68 L 221.84 -1.68 L 221.84 -19.6 Z M 233.97 -15.4 L 233.97 -4.2 C 233.97 -0.45 236.1 0.28 238.73 0.28 C 241.39 0.28 243.49 -0.5 243.49 -4.2 L 243.49 -15.4 C 243.49 -19.15 241.39 -19.88 238.73 -19.88 C 236.1 -19.88 233.97 -19.15 233.97 -15.4 Z M 235.93 -4.76 L 235.93 -14.84 C 235.93 -17.39 237.02 -17.92 238.73 -17.92 C 240.44 -17.92 241.53 -17.39 241.53 -14.84 L 241.53 -4.76 C 241.53 -2.21 240.44 -1.68 238.73 -1.68 C 237.02 -1.68 235.93 -2.21 235.93 -4.76 Z M 261.91 -9.8 L 256.87 -9.8 L 256.87 -8.12 L 259.95 -8.12 L 259.95 -4.76 C 259.95 -2.21 258.86 -1.68 257.15 -1.68 C 255.44 -1.68 254.35 -2.21 254.35 -4.76 L 254.35 -14.84 C 254.35 -17.39 255.44 -17.92 257.15 -17.92 C 258.86 -17.92 259.95 -17.39 259.95 -14.84 L 259.95 -12.04 L 261.91 -12.04 L 261.91 -15.4 C 261.91 -19.15 259.81 -19.88 257.15 -19.88 C 254.52 -19.88 252.39 -19.15 252.39 -15.4 L 252.39 -4.2 C 252.39 -0.45 254.52 0.28 257.15 0.28 C 258.02 0.28 259.39 -0.11 260.15 -1.62 L 260.79 0 L 261.91 0 Z" stroke-linecap="round" />
</g>
</g>
</g>
<g transform="matrix(1 0 0 1 125 125)" id="fox"  >
<g style=""  paint-order="stroke"   >
		<g transform="matrix(1 0 0 1 0 -1.421085e-14)" id="path-01"  >
<linearGradient id="SVGID_137103" gradientUnits="userSpaceOnUse" gradientTransform="matrix(1 0 0 1 0 -0.00000336006011991685)"  x1="0" y1="0" x2="0" y2="250">
<stop offset="0%" style="stop-color:rgb(250,217,97);stop-opacity: 1"/>
<stop offset="100%" style="stop-color:rgb(247,107,28);stop-opacity: 1"/>
</linearGradient>
<path style="stroke: none; stroke-width: 1; stroke-dasharray: none; stroke-linecap: butt; stroke-dashoffset: 0; stroke-linejoin: miter; stroke-miterlimit: 4; fill: url(#SVGID_137103); fill-rule: nonzero; opacity: 1;"  paint-order="stroke"  transform=" translate(-112.3672471888092, -124.99998419748499)" d="M 216.5361 186.61722 C 210.53198 147.74835000000002 189.67555000000002 117.5697 163.76294000000001 100.97931 C 136.59996 83.58847 109.88066 102.05099 98.50755000000001 75.86477 C 90.41999000000001 57.24342999999999 93.70431 47.30752999999999 93.70431 47.30752999999999 C 93.70431 47.30752999999999 97.08023 42.484809999999996 97.25237000000001 33.643159999999995 C 97.42450000000001 24.801599999999993 105.76111000000002 15.156159999999996 106.08257000000002 7.761299999999995 C 106.40413000000002 0.3665399999999952 103.34975000000001 -1.8840500000000056 92.09508000000002 5.028479999999995 C 80.84041000000003 11.941009999999995 69.43003000000002 19.175089999999997 60.106140000000025 18.532079999999993 C 50.782250000000026 17.888979999999993 41.81297000000002 18.85353999999999 41.81297000000002 18.85353999999999 C 41.81297000000002 18.85353999999999 39.36846000000002 14.352369999999992 27.63321000000002 5.349939999999991 C 15.89797 -3.6524 12.03982 -1.08026 9.6496 11.45877 C 7.259379999999998 23.997799999999998 11.87904 33.64315 9.94991 41.19878 C 8.020879999999998 48.75432 15.119299999999999 52.41874 10.95538 62.74015 C 6.79691 73.04846 1.07316 81.65787 2.95325 96.0069 C 4.833340000000001 110.35593 0 120.49625 0 120.49625 C 10.57482 114.35575 15.19299 103.70410000000001 17.30321 93.10231 L 17.30764 93.1036 C 22.53585 75.2947 26.40952 67.64746 34.336389999999994 60.47636 L 34.336389999999994 60.47627 C 41.196929999999995 71.70398 52.867439999999995 86.52647 65.67613 94.18858 C 54.38027 92.4761 47.592960000000005 98.12699 45.146969999999996 104.1962 C 45.146969999999996 104.1962 50.04338 98.50200000000001 57.57611 99.06726 C 66.50706 99.73743 82.56423 108.12889 89.53466 96.36713 C 90.52831 94.84830000000001 90.96557 92.99278 91.11924 91.31077 C 91.33856 109.18985 78.26003 126.10095000000001 78.26003 126.10095000000001 C 78.26003 126.10095000000001 86.05105 122.06106000000001 92.32935 115.79847000000001 C 89.07689 123.94327000000001 84.20975 133.69150000000002 76.93994 146.06329 C 66.45756 163.9021 67.65077000000001 181.27411 67.89706000000001 183.84790999999998 C 67.67662000000001 182.14372999999998 65.96479000000001 173.91572 52.98471000000001 164.75906999999998 C 35.27601000000001 152.26666999999998 33.077510000000004 136.9697 33.077510000000004 136.9697 C 33.077510000000004 136.9697 31.545940000000005 152.78797 35.538000000000004 159.86856 C 12.353500000000004 146.72465 14.133670000000002 115.6736 14.133670000000002 115.6736 C 9.561760000000003 160.14072 40.03067 175.88936 40.03067 175.88936 C 40.03067 175.88936 35.58001 225.42639000000003 29.17207 229.91205000000002 C 22.76403 234.39771000000002 17.210390000000004 230.76645000000002 14.647120000000001 232.26163000000003 C 12.083940000000002 233.75692000000004 9.307170000000001 238.66968000000003 10.375160000000001 244.22332000000003 L 65.69783000000001 244.22332000000003 C 95.38834000000001 247.42739000000003 187.66396000000003 256.61219000000006 207.95604 241.87374000000003 C 228.24811999999997 227.13529 228.88896 202.78474 216.5361 186.61722 z M 165.31853 142.43796 C 147.15132 147.8817 140.79122 157.8414 140.79122 157.8414 C 140.79122 157.8414 146.36748 157.07446 153.1885 160.21149 C 153.1885 160.21149 127.66476 167.25635 115.59264 187.52306 C 115.62199 186.88947 121.3522 145.12866 165.31853 142.43796 z M 58.54215 230.80527 C 56.60776 231.77242 50.52848 230.80527 48.73233 231.77242 C 46.93609 232.73966000000001 44.31095 237.54575 44.31095 237.54575 C 44.31095 237.54575 52.04832 223.06798 56.469609999999996 214.36347 C 60.890989999999995 205.65896 63.101589999999995 189.96831 63.101589999999995 189.96831 C 63.101589999999995 189.96831 67.52297 194.32929000000001 67.23031999999999 197.78353 C 66.93758 201.23766 60.47645 229.83812 58.54215 230.80527 z M 156.55066 213.49301 C 151.9673 213.79756 147.35523 213.81244 142.81868 213.7995 C 147.79849 207.52463 154.13062 207.58872 154.13062 207.58872 C 126.16356999999999 207.05533 107.47579999999999 219.61079999999998 107.47579999999999 219.61079999999998 C 107.47579999999999 219.61079999999998 111.58596999999999 210.03849999999997 120.10634999999999 207.20862 C 128.62673999999998 204.37865 118.49082999999999 207.20862 118.49082999999999 207.20862 C 118.49082999999999 207.20862 89.24385999999998 213.5365 67.23031999999999 237.54575 C 80.19506999999999 198.32477 119.94234 187.70691 135.37941 191.14609000000002 C 127.05721000000001 192.94344 122.12432000000001 199.36754000000002 122.12432000000001 199.36754000000002 C 122.12432000000001 199.36754000000002 136.62738000000002 192.15193000000002 154.18787 194.47446000000002 C 191.18431 199.36754000000002 201.72266000000002 185.24947000000003 201.72266000000002 185.24947000000003 C 192.52962 209.31154 174.60889 212.29314 156.55066 213.49301 z" stroke-linecap="round" />
</g>
</g>
</g>
</svg>